<svg width="16" height="16" viewBox="0 0 16 16" fill="none" xmlns="http://www.w3.org/2000/svg">
<g clip-path="url(#clip0_5665_8386)">
<rect y="13.2173" width="16" height="2.5" rx="1.25" fill="#01DB80"/>
<path d="M14.6073 13.5652C14.6073 12.0892 13.911 10.6737 12.6716 9.63001C11.4323 8.58633 9.75132 8 7.99859 8C6.24585 8 4.56491 8.58633 3.32554 9.63001C2.08616 10.6737 1.38989 12.0892 1.38989 13.5652L7.99859 13.5652H14.6073Z" fill="#01DB80"/>
<g opacity="0.8">
<rect x="7.5" width="2" height="12.5" rx="0.9375" fill="#11CCCC"/>
<path d="M7.5 0.9375C7.5 0.419733 7.91973 0 8.4375 0H13.659C14.4252 0 14.8678 0.869252 14.4172 1.48891L13.7192 2.44859C13.4801 2.77732 13.4801 3.22268 13.7192 3.55141L14.4172 4.51109C14.8678 5.13075 14.4252 6 13.659 6H8.4375C7.91973 6 7.5 5.58027 7.5 5.0625V0.9375Z" fill="#11CCCC"/>
</g>
<path fill-rule="evenodd" clip-rule="evenodd" d="M9.5 7.79511C9.01213 7.69936 8.50914 7.6499 8.0001 7.6499C7.83264 7.6499 7.66583 7.65525 7.5 7.66585V11.5602C7.5 12.078 7.91973 12.4977 8.4375 12.4977H8.5625C9.08027 12.4977 9.5 12.078 9.5 11.5602V7.79511Z" fill="#05A27F"/>
</g>
<defs>
<clipPath id="clip0_5665_8386">
<rect width="16" height="16" fill="white"/>
</clipPath>
</defs>
</svg>
