<svg width="16" height="16" viewBox="0 0 16 16" fill="none" xmlns="http://www.w3.org/2000/svg">
<g clip-path="url(#clip0_5665_8434)">
<path d="M8.01287 12.0143C9.63451 12.0143 11.2562 12.0163 12.8778 12.0133C13.637 12.0119 14.1213 11.7199 14.3248 11.1338C14.374 10.9923 14.3831 10.8347 14.3835 10.6845C14.3868 8.18337 14.3692 5.68196 14.3922 3.18088C14.405 1.74642 13.3176 0.322695 11.5012 0.0349984C11.3054 0.00414986 11.1015 0.00951483 10.9013 0.00917952C8.95698 0.00750297 7.01261 0.0319806 5.06898 0.000461456C3.52829 -0.0243515 1.95078 0.952743 1.62185 2.63097C1.58211 2.83417 1.58685 3.04642 1.58685 3.25431C1.58466 5.71549 1.59049 8.17667 1.58174 10.6378C1.57955 11.237 1.82278 11.6867 2.43249 11.9154C2.64946 11.9969 2.90801 12.0089 3.14795 12.0099C4.76959 12.0176 6.39123 12.014 8.01287 12.014V12.0143ZM12.5861 3.2627V6.69426H8.73891V3.2627H12.5861ZM3.38535 6.69929V3.26471H7.23542V6.69929H3.38535ZM11.7047 10.2791C11.1865 10.2817 10.7974 9.93101 10.7923 9.45621C10.7872 8.98778 11.1807 8.61559 11.6865 8.60989C12.1893 8.60419 12.5985 8.97504 12.6021 9.43911C12.6058 9.91156 12.2159 10.276 11.7047 10.2791ZM4.27949 10.2787C3.76459 10.2804 3.37149 9.92229 3.36967 9.45017C3.36784 8.98443 3.7697 8.60989 4.27293 8.60888C4.77834 8.60754 5.17838 8.97638 5.1802 9.44414C5.18166 9.91827 4.79439 10.2771 4.27949 10.2787Z" fill="#11CCCC"/>
<path d="M5.18921 12.9597C4.61268 12.9597 4.09268 12.9571 3.57304 12.9634C3.51579 12.9641 3.44103 13.003 3.4053 13.0459C2.6045 14.0049 1.80845 14.9666 1.01204 15.9286C1.00365 15.9386 1.00693 15.9568 1 15.999C1.53095 15.999 2.05824 16.0027 2.58554 15.9936C2.64608 15.9926 2.71864 15.9296 2.76277 15.8786C2.98521 15.6221 3.20984 15.3659 3.41368 15.097C3.51178 14.9672 3.62081 14.9324 3.78345 14.9327C6.5895 14.9367 9.39555 14.9364 12.2016 14.933C12.3537 14.933 12.4572 14.9652 12.5502 15.087C12.7552 15.3552 12.9783 15.6124 13.2019 15.8679C13.2507 15.9239 13.3317 15.992 13.3995 15.9933C13.9206 16.0037 14.4417 15.999 15.0007 15.999C14.9431 15.9145 14.9085 15.8541 14.864 15.8005C14.1299 14.9156 13.3904 14.0348 12.664 13.1448C12.5444 12.9986 12.4208 12.9507 12.2297 12.9554C11.7684 12.9671 11.3067 12.9591 10.7904 12.9591C11.0154 13.2384 11.217 13.4889 11.4402 13.7655H4.52954C4.74943 13.4972 4.95072 13.2515 5.18994 12.9594L5.18921 12.9597Z" fill="#01DB80"/>
</g>
<defs>
<clipPath id="clip0_5665_8434">
<rect width="16" height="16" fill="white"/>
</clipPath>
</defs>
</svg>
