<svg width="16" height="16" viewBox="0 0 16 16" fill="none" xmlns="http://www.w3.org/2000/svg">
<circle cx="8" cy="8" r="8" fill="#01DB80"/>
<path d="M8.12468 3C7.64212 3 7.24936 3.33785 7.24936 3.75295V8.0004L5.25595 9.71513C4.91468 10.0087 4.91468 10.4863 5.25595 10.7798C5.42659 10.9266 5.65071 11 5.87482 11C6.09894 11 6.32305 10.9266 6.49369 10.7798L8.73609 8.85092C8.77016 8.82225 8.80151 8.79122 8.82936 8.7587C8.83135 8.75635 8.83359 8.75378 8.83658 8.75014C8.8423 8.74329 8.84802 8.73645 8.85299 8.72981C8.85598 8.72596 8.85896 8.72211 8.8617 8.71805L8.86344 8.71569C8.86767 8.71013 8.87165 8.70457 8.87563 8.69879C8.87961 8.69322 8.88334 8.68766 8.88707 8.68167L8.88881 8.6791C8.8913 8.67525 8.89404 8.67119 8.89628 8.66755C8.90001 8.66156 8.90349 8.65557 8.90797 8.64786L8.90971 8.64487C8.9117 8.64145 8.91369 8.63802 8.91543 8.63481C8.91916 8.62797 8.92264 8.62112 8.92637 8.61384C8.92861 8.60978 8.9306 8.6055 8.93284 8.60122C8.93607 8.59437 8.93931 8.58731 8.94279 8.57961L8.94378 8.57704C8.94528 8.57362 8.94677 8.57019 8.94801 8.5672C8.95125 8.55971 8.95423 8.55201 8.95722 8.54409L8.95821 8.54174C8.95946 8.53853 8.9607 8.5351 8.96169 8.53275C8.96468 8.52441 8.96742 8.51606 8.9699 8.50772L8.97314 8.49766C8.97612 8.48803 8.97861 8.47819 8.9811 8.4677L8.98259 8.46236C8.99527 8.40886 9.001 8.35409 9 8.30145V3.75295C9 3.33785 8.60749 3 8.12468 3Z" fill="white"/>
</svg>
