<svg width="16" height="16" viewBox="0 0 16 16" fill="none" xmlns="http://www.w3.org/2000/svg">
<path d="M1 3.17611L1 9.33161C1 10.2852 1.41973 11.1884 2.14323 11.7916L6.03212 15.0339C7.17735 15.9887 8.82265 15.9887 9.96789 15.0339L13.8568 11.7916C14.5803 11.1884 15 10.2852 15 9.33161L15 3.17611C15 1.42199 13.6071 1.78558e-06 11.8889 1.63537e-06L4.11111 9.55412e-07C2.3929 8.052e-07 1 1.42199 1 3.17611Z" fill="#D588FF"/>
<path d="M7.31148 3.06999C7.59312 2.47667 8.40687 2.47667 8.68851 3.06999L9.17526 4.09541C9.2871 4.33102 9.50329 4.49433 9.75337 4.53211L10.8418 4.69654C11.4715 4.79169 11.723 5.59634 11.2673 6.05818L10.4797 6.85636C10.2988 7.03975 10.2162 7.30399 10.2589 7.56295L10.4448 8.68999C10.5524 9.34212 9.89406 9.83942 9.33078 9.53153L8.35729 8.99941C8.13361 8.87715 7.86639 8.87715 7.64271 8.99941L6.66922 9.53153C6.10594 9.83942 5.4476 9.34212 5.55517 8.68999L5.7411 7.56295C5.78381 7.30399 5.70124 7.03975 5.52028 6.85636L4.73271 6.05818C4.277 5.59634 4.52846 4.79169 5.15823 4.69654L6.24663 4.53211C6.49671 4.49433 6.7129 4.33102 6.82474 4.09541L7.31148 3.06999Z" fill="white"/>
</svg>
