<svg width="16" height="17" viewBox="0 0 16 17" fill="none" xmlns="http://www.w3.org/2000/svg">
<path d="M6.42625 1.50692C7.07 0.164363 8.93 0.16436 9.57375 1.50691L10.6863 3.8272C10.9419 4.36033 11.4361 4.72985 12.0077 4.81534L14.4955 5.18741C15.9349 5.4027 16.5097 7.22344 15.4681 8.26848L13.6679 10.0746C13.2543 10.4896 13.0656 11.0874 13.1632 11.6734L13.5882 14.2237C13.8341 15.6993 12.3293 16.8245 11.0418 16.1279L8.81666 14.9238C8.3054 14.6471 7.6946 14.6471 7.18334 14.9238L4.95821 16.1279C3.67071 16.8245 2.16594 15.6993 2.41183 14.2237L2.83679 11.6734C2.93443 11.0875 2.74569 10.4896 2.33207 10.0746L0.5319 8.26848C-0.509707 7.22345 0.0650627 5.4027 1.50453 5.18742L3.9923 4.81534C4.56391 4.72985 5.05805 4.36033 5.31369 3.8272L6.42625 1.50692Z" fill="#FFACB7"/>
</svg>
