<svg width="14" height="17" viewBox="0 0 14 17" fill="none" xmlns="http://www.w3.org/2000/svg">
<g clip-path="url(#clip0_4224_26229)">
<path d="M7.01275 12.4836C8.63439 12.4836 10.256 12.4857 11.8777 12.4826C12.6369 12.4812 13.1212 12.1777 13.3246 11.5687C13.3739 11.4217 13.383 11.2579 13.3833 11.1018C13.3866 8.50304 13.3691 5.90391 13.3921 3.30513C13.4049 1.81464 12.3175 0.3353 10.5011 0.0363655C10.3053 0.00431197 10.1014 0.00988651 9.90122 0.0095381C7.95685 0.00779606 6.01249 0.0332299 4.06886 0.000479482C2.52817 -0.0253027 0.950655 0.989959 0.621732 2.73374C0.581985 2.94488 0.586725 3.16542 0.586725 3.38143C0.584538 5.93875 0.590371 8.49607 0.581619 11.0534C0.579432 11.676 0.822659 12.1432 1.43237 12.3808C1.64934 12.4655 1.90789 12.478 2.14783 12.4791C3.76947 12.4871 5.39111 12.4833 7.01275 12.4833V12.4836ZM11.5859 3.39014V6.95575H7.73879V3.39014H11.5859ZM2.38522 6.96098V3.39223H6.2353V6.96098H2.38522ZM10.7046 10.6806C10.1864 10.6834 9.79729 10.3189 9.79218 9.82559C9.78708 9.33887 10.1805 8.95213 10.6863 8.94621C11.1892 8.94029 11.5983 9.32563 11.602 9.80782C11.6056 10.2987 11.2158 10.6775 10.7046 10.6806ZM3.27937 10.6802C2.76447 10.682 2.37137 10.3099 2.36954 9.81932C2.36772 9.33538 2.76958 8.94621 3.2728 8.94516C3.77822 8.94377 4.17825 9.32702 4.18008 9.81305C4.18153 10.3057 3.79427 10.6785 3.27937 10.6802Z" fill="#11CCCC"/>
<path d="M4.18921 13.4658C3.61268 13.4658 3.09268 13.463 2.57304 13.4696C2.51579 13.4703 2.44103 13.5107 2.4053 13.5553C1.6045 14.5518 0.808453 15.551 0.0120373 16.5506C0.00364971 16.561 0.0069313 16.5799 2.86102e-06 16.6238C0.530947 16.6238 1.05824 16.6276 1.58554 16.6182C1.64608 16.6171 1.71864 16.5516 1.76277 16.4987C1.98521 16.2322 2.20984 15.966 2.41368 15.6865C2.51178 15.5517 2.62081 15.5155 2.78345 15.5158C5.5895 15.52 8.39555 15.5197 11.2016 15.5162C11.3537 15.5162 11.4572 15.5496 11.5502 15.6761C11.7552 15.9548 11.9783 16.222 12.2019 16.4875C12.2507 16.5457 12.3317 16.6164 12.3995 16.6178C12.9206 16.6286 13.4417 16.6238 14.0007 16.6238C13.9431 16.536 13.9085 16.4732 13.864 16.4175C13.1299 15.4981 12.3904 14.5828 11.664 13.6581C11.5444 13.5062 11.4208 13.4564 11.2297 13.4613C10.7684 13.4735 10.3067 13.4651 9.79038 13.4651C10.0154 13.7553 10.217 14.0156 10.4402 14.303H3.52954C3.74943 14.0243 3.95072 13.7689 4.18994 13.4654L4.18921 13.4658Z" fill="#01DB80"/>
</g>
<defs>
<clipPath id="clip0_4224_26229">
<rect width="14" height="16.625" fill="white" transform="matrix(-1 0 0 1 14 0)"/>
</clipPath>
</defs>
</svg>
