<svg width="16" height="16" viewBox="0 0 16 16" fill="none" xmlns="http://www.w3.org/2000/svg">
<path d="M6.42625 1.00692C7.07 -0.335637 8.93 -0.33564 9.57375 1.00691L10.6863 3.3272C10.9419 3.86033 11.4361 4.22985 12.0077 4.31534L14.4955 4.68741C15.9349 4.9027 16.5097 6.72344 15.4681 7.76848L13.6679 9.57457C13.2543 9.98955 13.0656 10.5874 13.1632 11.1734L13.5882 13.7237C13.8341 15.1993 12.3293 16.3245 11.0418 15.6279L8.81666 14.4238C8.3054 14.1471 7.6946 14.1471 7.18334 14.4238L4.95821 15.6279C3.67071 16.3245 2.16594 15.1993 2.41183 13.7237L2.83679 11.1734C2.93443 10.5875 2.74569 9.98955 2.33207 9.57457L0.5319 7.76848C-0.509707 6.72345 0.0650627 4.9027 1.50453 4.68742L3.9923 4.31534C4.56391 4.22985 5.05805 3.86033 5.31369 3.3272L6.42625 1.00692Z" fill="#FF8782"/>
</svg>
