<svg width="16" height="16" viewBox="0 0 16 16" fill="none" xmlns="http://www.w3.org/2000/svg">
<path d="M15.9999 7.99994C15.9999 12.4182 12.4182 15.9999 7.99994 15.9999C3.5817 15.9999 0 12.4182 0 7.99994C0 3.5817 3.5817 0 7.99994 0C12.4182 0 15.9999 3.5817 15.9999 7.99994Z" fill="#FFB568"/>
<path d="M7.21312 4.50856C7.535 3.83048 8.465 3.83048 8.78687 4.50856L9.34316 5.68047C9.47097 5.94974 9.71804 6.13637 10.0039 6.17955L11.2477 6.36748C11.9675 6.47621 12.2549 7.39582 11.7341 7.92363L10.834 8.83584C10.6272 9.04543 10.5328 9.34741 10.5816 9.64337L10.7941 10.9314C10.917 11.6767 10.1646 12.2451 9.5209 11.8932L8.40833 11.285C8.1527 11.1453 7.8473 11.1453 7.59167 11.285L6.47911 11.8932C5.83536 12.2451 5.08297 11.6767 5.20591 10.9314L5.4184 9.64337C5.46722 9.34741 5.37284 9.04543 5.16603 8.83584L4.26595 7.92363C3.74515 7.39582 4.03253 6.47621 4.75226 6.36748L5.99615 6.17955C6.28196 6.13637 6.52903 5.94974 6.65684 5.68047L7.21312 4.50856Z" fill="white"/>
</svg>
