<svg width="16" height="16" viewBox="0 0 16 16" fill="none" xmlns="http://www.w3.org/2000/svg">
<path d="M15.9956 6.17869C15.9956 3.86933 14.092 2 11.7479 2C11.5954 2 11.4428 2.00682 11.2937 2.02388C10.9608 2.05799 10.6245 2.12962 10.2951 2.25243C10.2846 2.25243 10.2742 2.25925 10.2638 2.26266C10.2604 2.26266 10.2534 2.26266 10.25 2.26607C9.51486 2.53897 8.87337 3.0063 8.39833 3.60666C8.38792 3.62031 8.37752 3.63054 8.36712 3.64419C8.24576 3.79769 8.13826 3.96143 8.04117 4.1354C7.96489 4.02624 7.88514 3.91708 7.80192 3.81475C7.75684 3.78746 7.71523 3.74993 7.67708 3.70218C3.204 -1.82052 -7.0078 7.27027 7.51064 14.7783C7.53838 14.7919 7.56612 14.8056 7.59733 14.8158L7.99956 15L8.40179 14.8158C8.433 14.8022 8.46421 14.7919 8.49195 14.7783C14.144 11.8549 16.0476 8.68932 15.9991 6.24351C15.9991 6.22304 15.9991 6.20257 15.9991 6.17869H15.9956Z" fill="#F85B51"/>
</svg>
