<svg width="15" height="15" viewBox="0 0 15 15" fill="none" xmlns="http://www.w3.org/2000/svg">
<path d="M15.0001 7.5C15.0001 11.6421 11.6423 15 7.50019 15C3.35808 15 0.000244141 11.6421 0.000244141 7.5C0.000244141 3.35786 3.35808 0 7.50019 0C11.6423 0 15.0001 3.35786 15.0001 7.5Z" fill="url(#paint0_linear_5733_4729)"/>
<path d="M7.8209 6.01939L7.59735 6.24495L7.3738 6.01939C6.75648 5.39653 5.7556 5.39653 5.13828 6.01939C4.52096 6.64225 4.52096 7.6521 5.13828 8.27496L6.70314 9.85386C7.197 10.3521 7.9977 10.3521 8.49156 9.85386L10.0564 8.27496C10.6737 7.6521 10.6737 6.64225 10.0564 6.01939C9.4391 5.39653 8.43822 5.39653 7.8209 6.01939Z" fill="white"/>
<defs>
<linearGradient id="paint0_linear_5733_4729" x1="7.50019" y1="0" x2="7.50019" y2="15" gradientUnits="userSpaceOnUse">
<stop offset="1" stop-color="#5E7EFF"/>
</linearGradient>
</defs>
</svg>
