<svg width="16" height="16" viewBox="0 0 16 16" fill="none" xmlns="http://www.w3.org/2000/svg">
<path d="M15.9999 7.99994C15.9999 12.4182 12.4182 15.9999 7.99994 15.9999C3.5817 15.9999 0 12.4182 0 7.99994C0 3.5817 3.5817 0 7.99994 0C12.4182 0 15.9999 3.5817 15.9999 7.99994Z" fill="#83BAFF"/>
<path d="M8.2943 5.56134L7.98828 5.87011L7.68226 5.56134C6.83721 4.70872 5.46712 4.70872 4.62207 5.56134C3.77702 6.41397 3.77702 7.79634 4.62207 8.64897L6.7642 10.8103C7.44024 11.4924 8.53632 11.4924 9.21236 10.8103L11.3545 8.64896C12.1995 7.79634 12.1995 6.41397 11.3545 5.56134C10.5094 4.70872 9.13935 4.70872 8.2943 5.56134Z" fill="white"/>
</svg>
