<svg width="16" height="19" viewBox="0 0 16 19" fill="none" xmlns="http://www.w3.org/2000/svg">
<rect y="13.2173" width="16" height="2.5" rx="1.25" fill="#01DB80"/>
<path d="M14.6087 13.2176C14.6087 11.7416 13.9125 10.326 12.6731 9.28236C11.4337 8.23868 9.75279 7.65234 8.00005 7.65234C6.24732 7.65234 4.56637 8.23868 3.327 9.28236C2.08763 10.326 1.39136 11.7416 1.39136 13.2176L8.00005 13.2176H14.6087Z" fill="#01DB80"/>
<g opacity="0.8">
<rect x="7.5" width="2" height="12.5" rx="0.9375" fill="#11CCCC"/>
<path d="M7.5 0.9375C7.5 0.419733 7.91973 0 8.4375 0H13.659C14.4252 0 14.8678 0.869252 14.4172 1.48891L13.7192 2.44859C13.4801 2.77732 13.4801 3.22268 13.7192 3.55141L14.4172 4.51109C14.8678 5.13075 14.4252 6 13.659 6H8.4375C7.91973 6 7.5 5.58027 7.5 5.0625V0.9375Z" fill="#11CCCC"/>
</g>
<path fill-rule="evenodd" clip-rule="evenodd" d="M9.5 7.79511C9.01213 7.69936 8.50914 7.6499 8.0001 7.6499C7.83264 7.6499 7.66583 7.65525 7.5 7.66585V11.5602C7.5 12.078 7.91973 12.4977 8.4375 12.4977H8.5625C9.08027 12.4977 9.5 12.078 9.5 11.5602V7.79511Z" fill="#05A27F"/>
</svg>
